<svg width="430" height="178" viewBox="0 0 430 178" fill="none" xmlns="http://www.w3.org/2000/svg">
<ellipse cx="211" cy="52" rx="198" ry="52" fill="url(#paint0_radial_9_29)"/>
<ellipse cx="215" cy="114" rx="351" ry="64" fill="url(#paint1_radial_9_29)"/>
<g filter="url(#filter0_d_9_29)">
<mask id="path-3-outside-1_9_29" maskUnits="userSpaceOnUse" x="32" y="90" width="366" height="70" fill="black">
<rect fill="white" x="32" y="90" width="366" height="70"/>
<path d="M45.82 147H34.9V92.4H45.82L64.852 118.842L84.196 92.4H94.726V147H83.806V110.184L69.532 131.166H60.406L45.82 110.184V147ZM112.681 119.778H139.903V103.32H123.523L112.681 114.318V119.778ZM112.681 147H101.761V108.858L118.063 92.4H150.745V147H139.903V130.698H112.681V147ZM186.217 147H175.297V103.32H156.187V92.4H205.171V103.32H186.217V147ZM221.549 119.778H248.771V103.32H221.549V119.778ZM221.549 147H210.629V92.4H254.231L259.613 97.938V125.238L254.231 130.698H221.549V147ZM277.535 147H266.615V92.4H277.535V128.748L304.757 92.4H315.599V147H304.757V110.574L277.535 147ZM377.885 157.92H366.965V147H323.363V92.4H334.283V136.08H361.505V92.4H372.347V136.08H377.885V157.92ZM395.068 147H384.148V92.4H395.068V147Z"/>
</mask>
<path d="M45.82 147V149H47.82V147H45.82ZM34.9 147H32.9V149H34.9V147ZM34.9 92.4V90.4H32.9V92.4H34.9ZM45.82 92.4L47.4433 91.2316L46.8447 90.4H45.82V92.4ZM64.852 118.842L63.2288 120.01L64.8388 122.247L66.4662 120.023L64.852 118.842ZM84.196 92.4V90.4H83.1811L82.5818 91.2191L84.196 92.4ZM94.726 92.4H96.726V90.4H94.726V92.4ZM94.726 147V149H96.726V147H94.726ZM83.806 147H81.806V149H83.806V147ZM83.806 110.184H85.806V103.688L82.1524 109.059L83.806 110.184ZM69.532 131.166V133.166H70.5903L71.1856 132.291L69.532 131.166ZM60.406 131.166L58.7638 132.308L59.3606 133.166H60.406V131.166ZM45.82 110.184L47.4622 109.042L43.82 103.803V110.184H45.82ZM45.82 145H34.9V149H45.82V145ZM36.9 147V92.4H32.9V147H36.9ZM34.9 94.4H45.82V90.4H34.9V94.4ZM44.1968 93.5684L63.2288 120.01L66.4753 117.674L47.4433 91.2316L44.1968 93.5684ZM66.4662 120.023L85.8102 93.5809L82.5818 91.2191L63.2378 117.661L66.4662 120.023ZM84.196 94.4H94.726V90.4H84.196V94.4ZM92.726 92.4V147H96.726V92.4H92.726ZM94.726 145H83.806V149H94.726V145ZM85.806 147V110.184H81.806V147H85.806ZM82.1524 109.059L67.8784 130.041L71.1856 132.291L85.4596 111.309L82.1524 109.059ZM69.532 129.166H60.406V133.166H69.532V129.166ZM62.0482 130.024L47.4622 109.042L44.1778 111.326L58.7638 132.308L62.0482 130.024ZM43.82 110.184V147H47.82V110.184H43.82ZM112.681 119.778H110.681V121.778H112.681V119.778ZM139.903 119.778V121.778H141.903V119.778H139.903ZM139.903 103.32H141.903V101.32H139.903V103.32ZM123.523 103.32V101.32H122.686L122.098 101.916L123.523 103.32ZM112.681 114.318L111.256 112.914L110.681 113.498V114.318H112.681ZM112.681 147V149H114.681V147H112.681ZM101.761 147H99.7606V149H101.761V147ZM101.761 108.858L100.34 107.451L99.7606 108.035V108.858H101.761ZM118.063 92.4V90.4H117.229L116.642 90.9925L118.063 92.4ZM150.745 92.4H152.745V90.4H150.745V92.4ZM150.745 147V149H152.745V147H150.745ZM139.903 147H137.903V149H139.903V147ZM139.903 130.698H141.903V128.698H139.903V130.698ZM112.681 130.698V128.698H110.681V130.698H112.681ZM112.681 121.778H139.903V117.778H112.681V121.778ZM141.903 119.778V103.32H137.903V119.778H141.903ZM139.903 101.32H123.523V105.32H139.903V101.32ZM122.098 101.916L111.256 112.914L114.105 115.722L124.947 104.724L122.098 101.916ZM110.681 114.318V119.778H114.681V114.318H110.681ZM112.681 145H101.761V149H112.681V145ZM103.761 147V108.858H99.7606V147H103.761ZM103.182 110.265L119.484 93.8075L116.642 90.9925L100.34 107.451L103.182 110.265ZM118.063 94.4H150.745V90.4H118.063V94.4ZM148.745 92.4V147H152.745V92.4H148.745ZM150.745 145H139.903V149H150.745V145ZM141.903 147V130.698H137.903V147H141.903ZM139.903 128.698H112.681V132.698H139.903V128.698ZM110.681 130.698V147H114.681V130.698H110.681ZM186.217 147V149H188.217V147H186.217ZM175.297 147H173.297V149H175.297V147ZM175.297 103.32H177.297V101.32H175.297V103.32ZM156.187 103.32H154.187V105.32H156.187V103.32ZM156.187 92.4V90.4H154.187V92.4H156.187ZM205.171 92.4H207.171V90.4H205.171V92.4ZM205.171 103.32V105.32H207.171V103.32H205.171ZM186.217 103.32V101.32H184.217V103.32H186.217ZM186.217 145H175.297V149H186.217V145ZM177.297 147V103.32H173.297V147H177.297ZM175.297 101.32H156.187V105.32H175.297V101.32ZM158.187 103.32V92.4H154.187V103.32H158.187ZM156.187 94.4H205.171V90.4H156.187V94.4ZM203.171 92.4V103.32H207.171V92.4H203.171ZM205.171 101.32H186.217V105.32H205.171V101.32ZM184.217 103.32V147H188.217V103.32H184.217ZM221.549 119.778H219.549V121.778H221.549V119.778ZM248.771 119.778V121.778H250.771V119.778H248.771ZM248.771 103.32H250.771V101.32H248.771V103.32ZM221.549 103.32V101.32H219.549V103.32H221.549ZM221.549 147V149H223.549V147H221.549ZM210.629 147H208.629V149H210.629V147ZM210.629 92.4V90.4H208.629V92.4H210.629ZM254.231 92.4L255.665 91.0061L255.076 90.4H254.231V92.4ZM259.613 97.938H261.613V97.1263L261.047 96.5441L259.613 97.938ZM259.613 125.238L261.037 126.642L261.613 126.058V125.238H259.613ZM254.231 130.698V132.698H255.067L255.655 132.102L254.231 130.698ZM221.549 130.698V128.698H219.549V130.698H221.549ZM221.549 121.778H248.771V117.778H221.549V121.778ZM250.771 119.778V103.32H246.771V119.778H250.771ZM248.771 101.32H221.549V105.32H248.771V101.32ZM219.549 103.32V119.778H223.549V103.32H219.549ZM221.549 145H210.629V149H221.549V145ZM212.629 147V92.4H208.629V147H212.629ZM210.629 94.4H254.231V90.4H210.629V94.4ZM252.796 93.7939L258.178 99.3319L261.047 96.5441L255.665 91.0061L252.796 93.7939ZM257.613 97.938V125.238H261.613V97.938H257.613ZM258.188 123.834L252.806 129.294L255.655 132.102L261.037 126.642L258.188 123.834ZM254.231 128.698H221.549V132.698H254.231V128.698ZM219.549 130.698V147H223.549V130.698H219.549ZM277.535 147V149H278.537L279.137 148.197L277.535 147ZM266.615 147H264.615V149H266.615V147ZM266.615 92.4V90.4H264.615V92.4H266.615ZM277.535 92.4H279.535V90.4H277.535V92.4ZM277.535 128.748H275.535V134.755L279.136 129.947L277.535 128.748ZM304.757 92.4V90.4H303.756L303.156 91.2011L304.757 92.4ZM315.599 92.4H317.599V90.4H315.599V92.4ZM315.599 147V149H317.599V147H315.599ZM304.757 147H302.757V149H304.757V147ZM304.757 110.574H306.757V104.557L303.155 109.377L304.757 110.574ZM277.535 145H266.615V149H277.535V145ZM268.615 147V92.4H264.615V147H268.615ZM266.615 94.4H277.535V90.4H266.615V94.4ZM275.535 92.4V128.748H279.535V92.4H275.535ZM279.136 129.947L306.358 93.5989L303.156 91.2011L275.934 127.549L279.136 129.947ZM304.757 94.4H315.599V90.4H304.757V94.4ZM313.599 92.4V147H317.599V92.4H313.599ZM315.599 145H304.757V149H315.599V145ZM306.757 147V110.574H302.757V147H306.757ZM303.155 109.377L275.933 145.803L279.137 148.197L306.359 111.771L303.155 109.377ZM377.885 157.92V159.92H379.885V157.92H377.885ZM366.965 157.92H364.965V159.92H366.965V157.92ZM366.965 147H368.965V145H366.965V147ZM323.363 147H321.363V149H323.363V147ZM323.363 92.4V90.4H321.363V92.4H323.363ZM334.283 92.4H336.283V90.4H334.283V92.4ZM334.283 136.08H332.283V138.08H334.283V136.08ZM361.505 136.08V138.08H363.505V136.08H361.505ZM361.505 92.4V90.4H359.505V92.4H361.505ZM372.347 92.4H374.347V90.4H372.347V92.4ZM372.347 136.08H370.347V138.08H372.347V136.08ZM377.885 136.08H379.885V134.08H377.885V136.08ZM377.885 155.92H366.965V159.92H377.885V155.92ZM368.965 157.92V147H364.965V157.92H368.965ZM366.965 145H323.363V149H366.965V145ZM325.363 147V92.4H321.363V147H325.363ZM323.363 94.4H334.283V90.4H323.363V94.4ZM332.283 92.4V136.08H336.283V92.4H332.283ZM334.283 138.08H361.505V134.08H334.283V138.08ZM363.505 136.08V92.4H359.505V136.08H363.505ZM361.505 94.4H372.347V90.4H361.505V94.4ZM370.347 92.4V136.08H374.347V92.4H370.347ZM372.347 138.08H377.885V134.08H372.347V138.08ZM375.885 136.08V157.92H379.885V136.08H375.885ZM395.068 147V149H397.068V147H395.068ZM384.148 147H382.148V149H384.148V147ZM384.148 92.4V90.4H382.148V92.4H384.148ZM395.068 92.4H397.068V90.4H395.068V92.4ZM395.068 145H384.148V149H395.068V145ZM386.148 147V92.4H382.148V147H386.148ZM384.148 94.4H395.068V90.4H384.148V94.4ZM393.068 92.4V147H397.068V92.4H393.068Z" fill="#D0FDD1" mask="url(#path-3-outside-1_9_29)"/>
</g>
<g filter="url(#filter1_d_9_29)">
<mask id="path-5-outside-2_9_29" maskUnits="userSpaceOnUse" x="96" y="23" width="235" height="45" fill="black">
<rect fill="white" x="96" y="23" width="235" height="45"/>
<path d="M105.12 52.28H121.872V45.608H105.12V52.28ZM105.12 38.888H121.872V32.12H105.12V38.888ZM125.232 59H98.4V25.4H125.232L128.544 28.808V38.888L125.232 42.248L128.544 45.608V55.688L125.232 59ZM145.322 59H138.602V25.4H145.322V47.768L162.074 25.4H168.746V59H162.074V36.584L145.322 59ZM185.044 59H178.324V48.968L185.044 42.248L178.324 35.528V25.4H185.044V32.168L191.716 38.888H195.076L201.796 32.168V25.4H208.468V35.528L201.796 42.248L208.468 48.968V59H201.796V52.28L195.076 45.608H191.716L185.044 52.28V59ZM224.788 59H218.068V25.4H224.788V59ZM242.991 52.28H256.431V32.12H249.711L242.991 38.84V52.28ZM239.679 65.72H232.959V52.28H236.271V35.48L246.351 25.4H263.103V52.28H266.511V65.72H259.791V59H239.679V65.72ZM325.499 59H301.979L298.667 55.688V48.968H305.387V52.28H322.139V45.608H312.059V38.888H322.139V32.12H305.387V35.48H298.667V28.808L301.979 25.4H325.499L328.811 28.808V38.888L325.499 42.248L328.811 45.608V55.688L325.499 59Z"/>
</mask>
<path d="M105.12 52.28H103.12V54.28H105.12V52.28ZM121.872 52.28V54.28H123.872V52.28H121.872ZM121.872 45.608H123.872V43.608H121.872V45.608ZM105.12 45.608V43.608H103.12V45.608H105.12ZM105.12 38.888H103.12V40.888H105.12V38.888ZM121.872 38.888V40.888H123.872V38.888H121.872ZM121.872 32.12H123.872V30.12H121.872V32.12ZM105.12 32.12V30.12H103.12V32.12H105.12ZM125.232 59V61H126.06L126.646 60.4142L125.232 59ZM98.4 59H96.4V61H98.4V59ZM98.4 25.4V23.4H96.4V25.4H98.4ZM125.232 25.4L126.666 24.0061L126.077 23.4H125.232V25.4ZM128.544 28.808H130.544V27.9963L129.978 27.4141L128.544 28.808ZM128.544 38.888L129.968 40.292L130.544 39.708V38.888H128.544ZM125.232 42.248L123.808 40.844L122.424 42.248L123.808 43.652L125.232 42.248ZM128.544 45.608H130.544V44.788L129.968 44.204L128.544 45.608ZM128.544 55.688L129.958 57.1022L130.544 56.5164V55.688H128.544ZM105.12 54.28H121.872V50.28H105.12V54.28ZM123.872 52.28V45.608H119.872V52.28H123.872ZM121.872 43.608H105.12V47.608H121.872V43.608ZM103.12 45.608V52.28H107.12V45.608H103.12ZM105.12 40.888H121.872V36.888H105.12V40.888ZM123.872 38.888V32.12H119.872V38.888H123.872ZM121.872 30.12H105.12V34.12H121.872V30.12ZM103.12 32.12V38.888H107.12V32.12H103.12ZM125.232 57H98.4V61H125.232V57ZM100.4 59V25.4H96.4V59H100.4ZM98.4 27.4H125.232V23.4H98.4V27.4ZM123.798 26.7939L127.11 30.2019L129.978 27.4141L126.666 24.0061L123.798 26.7939ZM126.544 28.808V38.888H130.544V28.808H126.544ZM127.12 37.484L123.808 40.844L126.656 43.652L129.968 40.292L127.12 37.484ZM123.808 43.652L127.12 47.012L129.968 44.204L126.656 40.844L123.808 43.652ZM126.544 45.608V55.688H130.544V45.608H126.544ZM127.13 54.2738L123.818 57.5858L126.646 60.4142L129.958 57.1022L127.13 54.2738ZM145.322 59V61H146.324L146.924 60.1973L145.322 59ZM138.602 59H136.602V61H138.602V59ZM138.602 25.4V23.4H136.602V25.4H138.602ZM145.322 25.4H147.322V23.4H145.322V25.4ZM145.322 47.768H143.322V53.7749L146.923 48.9669L145.322 47.768ZM162.074 25.4V23.4H161.073L160.473 24.2011L162.074 25.4ZM168.746 25.4H170.746V23.4H168.746V25.4ZM168.746 59V61H170.746V59H168.746ZM162.074 59H160.074V61H162.074V59ZM162.074 36.584H164.074V30.5668L160.472 35.3867L162.074 36.584ZM145.322 57H138.602V61H145.322V57ZM140.602 59V25.4H136.602V59H140.602ZM138.602 27.4H145.322V23.4H138.602V27.4ZM143.322 25.4V47.768H147.322V25.4H143.322ZM146.923 48.9669L163.675 26.5989L160.473 24.2011L143.721 46.5691L146.923 48.9669ZM162.074 27.4H168.746V23.4H162.074V27.4ZM166.746 25.4V59H170.746V25.4H166.746ZM168.746 57H162.074V61H168.746V57ZM164.074 59V36.584H160.074V59H164.074ZM160.472 35.3867L143.72 57.8027L146.924 60.1973L163.676 37.7813L160.472 35.3867ZM185.044 59V61H187.044V59H185.044ZM178.324 59H176.324V61H178.324V59ZM178.324 48.968L176.91 47.5538L176.324 48.1396V48.968H178.324ZM185.044 42.248L186.458 43.6622L187.872 42.248L186.458 40.8338L185.044 42.248ZM178.324 35.528H176.324V36.3564L176.91 36.9422L178.324 35.528ZM178.324 25.4V23.4H176.324V25.4H178.324ZM185.044 25.4H187.044V23.4H185.044V25.4ZM185.044 32.168H183.044V32.9922L183.624 33.5771L185.044 32.168ZM191.716 38.888L190.296 40.2971L190.883 40.888H191.716V38.888ZM195.076 38.888V40.888H195.904L196.49 40.3022L195.076 38.888ZM201.796 32.168L203.21 33.5822L203.796 32.9964V32.168H201.796ZM201.796 25.4V23.4H199.796V25.4H201.796ZM208.468 25.4H210.468V23.4H208.468V25.4ZM208.468 35.528L209.887 36.9371L210.468 36.3522V35.528H208.468ZM201.796 42.248L200.376 40.8389L198.977 42.248L200.376 43.6571L201.796 42.248ZM208.468 48.968H210.468V48.1438L209.887 47.5589L208.468 48.968ZM208.468 59V61H210.468V59H208.468ZM201.796 59H199.796V61H201.796V59ZM201.796 52.28H203.796V51.4474L203.205 50.8607L201.796 52.28ZM195.076 45.608L196.485 44.1887L195.9 43.608H195.076V45.608ZM191.716 45.608V43.608H190.887L190.302 44.1938L191.716 45.608ZM185.044 52.28L183.63 50.8658L183.044 51.4516V52.28H185.044ZM185.044 57H178.324V61H185.044V57ZM180.324 59V48.968H176.324V59H180.324ZM179.738 50.3822L186.458 43.6622L183.63 40.8338L176.91 47.5538L179.738 50.3822ZM186.458 40.8338L179.738 34.1138L176.91 36.9422L183.63 43.6622L186.458 40.8338ZM180.324 35.528V25.4H176.324V35.528H180.324ZM178.324 27.4H185.044V23.4H178.324V27.4ZM183.044 25.4V32.168H187.044V25.4H183.044ZM183.624 33.5771L190.296 40.2971L193.135 37.4789L186.463 30.7589L183.624 33.5771ZM191.716 40.888H195.076V36.888H191.716V40.888ZM196.49 40.3022L203.21 33.5822L200.382 30.7538L193.662 37.4738L196.49 40.3022ZM203.796 32.168V25.4H199.796V32.168H203.796ZM201.796 27.4H208.468V23.4H201.796V27.4ZM206.468 25.4V35.528H210.468V25.4H206.468ZM207.048 34.1189L200.376 40.8389L203.215 43.6571L209.887 36.9371L207.048 34.1189ZM200.376 43.6571L207.048 50.3771L209.887 47.5589L203.215 40.8389L200.376 43.6571ZM206.468 48.968V59H210.468V48.968H206.468ZM208.468 57H201.796V61H208.468V57ZM203.796 59V52.28H199.796V59H203.796ZM203.205 50.8607L196.485 44.1887L193.667 47.0273L200.387 53.6993L203.205 50.8607ZM195.076 43.608H191.716V47.608H195.076V43.608ZM190.302 44.1938L183.63 50.8658L186.458 53.6942L193.13 47.0222L190.302 44.1938ZM183.044 52.28V59H187.044V52.28H183.044ZM224.788 59V61H226.788V59H224.788ZM218.068 59H216.068V61H218.068V59ZM218.068 25.4V23.4H216.068V25.4H218.068ZM224.788 25.4H226.788V23.4H224.788V25.4ZM224.788 57H218.068V61H224.788V57ZM220.068 59V25.4H216.068V59H220.068ZM218.068 27.4H224.788V23.4H218.068V27.4ZM222.788 25.4V59H226.788V25.4H222.788ZM242.991 52.28H240.991V54.28H242.991V52.28ZM256.431 52.28V54.28H258.431V52.28H256.431ZM256.431 32.12H258.431V30.12H256.431V32.12ZM249.711 32.12V30.12H248.883L248.297 30.7058L249.711 32.12ZM242.991 38.84L241.577 37.4258L240.991 38.0116V38.84H242.991ZM239.679 65.72V67.72H241.679V65.72H239.679ZM232.959 65.72H230.959V67.72H232.959V65.72ZM232.959 52.28V50.28H230.959V52.28H232.959ZM236.271 52.28V54.28H238.271V52.28H236.271ZM236.271 35.48L234.857 34.0658L234.271 34.6516V35.48H236.271ZM246.351 25.4V23.4H245.523L244.937 23.9858L246.351 25.4ZM263.103 25.4H265.103V23.4H263.103V25.4ZM263.103 52.28H261.103V54.28H263.103V52.28ZM266.511 52.28H268.511V50.28H266.511V52.28ZM266.511 65.72V67.72H268.511V65.72H266.511ZM259.791 65.72H257.791V67.72H259.791V65.72ZM259.791 59H261.791V57H259.791V59ZM239.679 59V57H237.679V59H239.679ZM242.991 54.28H256.431V50.28H242.991V54.28ZM258.431 52.28V32.12H254.431V52.28H258.431ZM256.431 30.12H249.711V34.12H256.431V30.12ZM248.297 30.7058L241.577 37.4258L244.406 40.2542L251.126 33.5342L248.297 30.7058ZM240.991 38.84V52.28H244.991V38.84H240.991ZM239.679 63.72H232.959V67.72H239.679V63.72ZM234.959 65.72V52.28H230.959V65.72H234.959ZM232.959 54.28H236.271V50.28H232.959V54.28ZM238.271 52.28V35.48H234.271V52.28H238.271ZM237.686 36.8942L247.766 26.8142L244.937 23.9858L234.857 34.0658L237.686 36.8942ZM246.351 27.4H263.103V23.4H246.351V27.4ZM261.103 25.4V52.28H265.103V25.4H261.103ZM263.103 54.28H266.511V50.28H263.103V54.28ZM264.511 52.28V65.72H268.511V52.28H264.511ZM266.511 63.72H259.791V67.72H266.511V63.72ZM261.791 65.72V59H257.791V65.72H261.791ZM259.791 57H239.679V61H259.791V57ZM237.679 59V65.72H241.679V59H237.679ZM325.499 59V61H326.327L326.913 60.4142L325.499 59ZM301.979 59L300.565 60.4142L301.15 61H301.979V59ZM298.667 55.688H296.667V56.5164L297.253 57.1022L298.667 55.688ZM298.667 48.968V46.968H296.667V48.968H298.667ZM305.387 48.968H307.387V46.968H305.387V48.968ZM305.387 52.28H303.387V54.28H305.387V52.28ZM322.139 52.28V54.28H324.139V52.28H322.139ZM322.139 45.608H324.139V43.608H322.139V45.608ZM312.059 45.608H310.059V47.608H312.059V45.608ZM312.059 38.888V36.888H310.059V38.888H312.059ZM322.139 38.888V40.888H324.139V38.888H322.139ZM322.139 32.12H324.139V30.12H322.139V32.12ZM305.387 32.12V30.12H303.387V32.12H305.387ZM305.387 35.48V37.48H307.387V35.48H305.387ZM298.667 35.48H296.667V37.48H298.667V35.48ZM298.667 28.808L297.233 27.4141L296.667 27.9963V28.808H298.667ZM301.979 25.4V23.4H301.134L300.545 24.0061L301.979 25.4ZM325.499 25.4L326.933 24.0061L326.344 23.4H325.499V25.4ZM328.811 28.808H330.811V27.9963L330.245 27.4141L328.811 28.808ZM328.811 38.888L330.235 40.292L330.811 39.708V38.888H328.811ZM325.499 42.248L324.075 40.844L322.691 42.248L324.075 43.652L325.499 42.248ZM328.811 45.608H330.811V44.788L330.235 44.204L328.811 45.608ZM328.811 55.688L330.225 57.1022L330.811 56.5164V55.688H328.811ZM325.499 57H301.979V61H325.499V57ZM303.393 57.5858L300.081 54.2738L297.253 57.1022L300.565 60.4142L303.393 57.5858ZM300.667 55.688V48.968H296.667V55.688H300.667ZM298.667 50.968H305.387V46.968H298.667V50.968ZM303.387 48.968V52.28H307.387V48.968H303.387ZM305.387 54.28H322.139V50.28H305.387V54.28ZM324.139 52.28V45.608H320.139V52.28H324.139ZM322.139 43.608H312.059V47.608H322.139V43.608ZM314.059 45.608V38.888H310.059V45.608H314.059ZM312.059 40.888H322.139V36.888H312.059V40.888ZM324.139 38.888V32.12H320.139V38.888H324.139ZM322.139 30.12H305.387V34.12H322.139V30.12ZM303.387 32.12V35.48H307.387V32.12H303.387ZM305.387 33.48H298.667V37.48H305.387V33.48ZM300.667 35.48V28.808H296.667V35.48H300.667ZM300.101 30.2019L303.413 26.7939L300.545 24.0061L297.233 27.4141L300.101 30.2019ZM301.979 27.4H325.499V23.4H301.979V27.4ZM324.065 26.7939L327.377 30.2019L330.245 27.4141L326.933 24.0061L324.065 26.7939ZM326.811 28.808V38.888H330.811V28.808H326.811ZM327.387 37.484L324.075 40.844L326.923 43.652L330.235 40.292L327.387 37.484ZM324.075 43.652L327.387 47.012L330.235 44.204L326.923 40.844L324.075 43.652ZM326.811 45.608V55.688H330.811V45.608H326.811ZM327.397 54.2738L324.085 57.5858L326.913 60.4142L330.225 57.1022L327.397 54.2738Z" fill="#D0FDD1" mask="url(#path-5-outside-2_9_29)"/>
</g>
<defs>
<filter id="filter0_d_9_29" x="30.9" y="87.4" width="368.168" height="73.52" filterUnits="userSpaceOnUse" color-interpolation-filters="sRGB">
<feFlood flood-opacity="0" result="BackgroundImageFix"/>
<feColorMatrix in="SourceAlpha" type="matrix" values="0 0 0 0 0 0 0 0 0 0 0 0 0 0 0 0 0 0 127 0" result="hardAlpha"/>
<feOffset dy="-1"/>
<feGaussianBlur stdDeviation="2"/>
<feComposite in2="hardAlpha" operator="out"/>
<feColorMatrix type="matrix" values="0 0 0 0 0.465485 0 0 0 0 0.964437 0 0 0 0 0.478898 0 0 0 1 0"/>
<feBlend mode="normal" in2="BackgroundImageFix" result="effect1_dropShadow_9_29"/>
<feBlend mode="normal" in="SourceGraphic" in2="effect1_dropShadow_9_29" result="shape"/>
</filter>
<filter id="filter1_d_9_29" x="94.4" y="20.4" width="238.411" height="48.32" filterUnits="userSpaceOnUse" color-interpolation-filters="sRGB">
<feFlood flood-opacity="0" result="BackgroundImageFix"/>
<feColorMatrix in="SourceAlpha" type="matrix" values="0 0 0 0 0 0 0 0 0 0 0 0 0 0 0 0 0 0 127 0" result="hardAlpha"/>
<feOffset dy="-1"/>
<feGaussianBlur stdDeviation="2"/>
<feComposite in2="hardAlpha" operator="out"/>
<feColorMatrix type="matrix" values="0 0 0 0 0.465485 0 0 0 0 0.964437 0 0 0 0 0.478898 0 0 0 1 0"/>
<feBlend mode="normal" in2="BackgroundImageFix" result="effect1_dropShadow_9_29"/>
<feBlend mode="normal" in="SourceGraphic" in2="effect1_dropShadow_9_29" result="shape"/>
</filter>
<radialGradient id="paint0_radial_9_29" cx="0" cy="0" r="1" gradientUnits="userSpaceOnUse" gradientTransform="translate(211 52) scale(198 52)">
<stop stop-color="#36F03B" stop-opacity="0.8"/>
<stop offset="0.636219" stop-color="#1D8A20" stop-opacity="0.420481"/>
<stop offset="1" stop-color="#021803" stop-opacity="0"/>
</radialGradient>
<radialGradient id="paint1_radial_9_29" cx="0" cy="0" r="1" gradientUnits="userSpaceOnUse" gradientTransform="translate(215 114) scale(351 64)">
<stop stop-color="#36F03B" stop-opacity="0.8"/>
<stop offset="0.636219" stop-color="#1D8A20" stop-opacity="0.420481"/>
<stop offset="1" stop-color="#021803" stop-opacity="0"/>
</radialGradient>
</defs>
</svg>
